<svg width="24" height="25" viewBox="0 0 24 25" fill="none" xmlns="http://www.w3.org/2000/svg">
<path d="M20 11.291V7.59102C20 5.91086 20 5.07078 19.673 4.42904C19.3854 3.86456 18.9265 3.40562 18.362 3.118C17.7202 2.79102 16.8802 2.79102 15.2 2.79102H8.8C7.11984 2.79102 6.27976 2.79102 5.63803 3.118C5.07354 3.40562 4.6146 3.86456 4.32698 4.42904C4 5.07078 4 5.91086 4 7.59102V17.991C4 19.6712 4 20.5113 4.32698 21.153C4.6146 21.7175 5.07354 22.1764 5.63803 22.464C6.27976 22.791 7.11984 22.791 8.8 22.791H11.5M22 22.791L20.5 21.291M21.5 18.791C21.5 20.724 19.933 22.291 18 22.291C16.067 22.291 14.5 20.724 14.5 18.791C14.5 16.858 16.067 15.291 18 15.291C19.933 15.291 21.5 16.858 21.5 18.791Z" stroke="#1D232A" stroke-width="1.5" stroke-linecap="round" stroke-linejoin="round"/>
</svg>
