<svg width="24" height="25" viewBox="0 0 24 25" fill="none" xmlns="http://www.w3.org/2000/svg">
<path d="M21 10.791H3M16 2.79102V6.79102M8 2.79102V6.79102M7.8 22.791H16.2C17.8802 22.791 18.7202 22.791 19.362 22.464C19.9265 22.1764 20.3854 21.7175 20.673 21.153C21 20.5113 21 19.6712 21 17.991V9.59102C21 7.91086 21 7.07078 20.673 6.42904C20.3854 5.86456 19.9265 5.40562 19.362 5.118C18.7202 4.79102 17.8802 4.79102 16.2 4.79102H7.8C6.11984 4.79102 5.27976 4.79102 4.63803 5.118C4.07354 5.40562 3.6146 5.86456 3.32698 6.42904C3 7.07078 3 7.91086 3 9.59102V17.991C3 19.6712 3 20.5113 3.32698 21.153C3.6146 21.7175 4.07354 22.1764 4.63803 22.464C5.27976 22.791 6.11984 22.791 7.8 22.791Z" stroke="black" stroke-width="1.5" stroke-linecap="round" stroke-linejoin="round"/>
</svg>
