<svg width="24" height="25" viewBox="0 0 24 25" fill="none" xmlns="http://www.w3.org/2000/svg">
<path d="M4 6.79102C4 5.68645 4.89543 4.79102 6 4.79102H8C9.10457 4.79102 10 5.68645 10 6.79102V8.79102C10 9.89559 9.10457 10.791 8 10.791H6C4.89543 10.791 4 9.89559 4 8.79102V6.79102Z" stroke="#1D232A" stroke-width="1.5" stroke-linecap="round" stroke-linejoin="round"/>
<path d="M14 6.79102C14 5.68645 14.8954 4.79102 16 4.79102H18C19.1046 4.79102 20 5.68645 20 6.79102V8.79102C20 9.89559 19.1046 10.791 18 10.791H16C14.8954 10.791 14 9.89559 14 8.79102V6.79102Z" stroke="#1D232A" stroke-width="1.5" stroke-linecap="round" stroke-linejoin="round"/>
<path d="M4 16.791C4 15.6864 4.89543 14.791 6 14.791H8C9.10457 14.791 10 15.6864 10 16.791V18.791C10 19.8956 9.10457 20.791 8 20.791H6C4.89543 20.791 4 19.8956 4 18.791V16.791Z" stroke="#1D232A" stroke-width="1.5" stroke-linecap="round" stroke-linejoin="round"/>
<path d="M14 16.791C14 15.6864 14.8954 14.791 16 14.791H18C19.1046 14.791 20 15.6864 20 16.791V18.791C20 19.8956 19.1046 20.791 18 20.791H16C14.8954 20.791 14 19.8956 14 18.791V16.791Z" stroke="#1D232A" stroke-width="1.5" stroke-linecap="round" stroke-linejoin="round"/>
</svg>
