<svg width="28" height="27" viewBox="0 0 28 27" fill="none" xmlns="http://www.w3.org/2000/svg">
<g style="mix-blend-mode:multiply">
<rect x="0.5" y="0.5" width="27" height="26" rx="5.5" fill="#F7F7F7"/>
<rect x="0.5" y="0.5" width="27" height="26" rx="5.5" stroke="#3A5913"/>
<path d="M14.001 15.1004C14.8846 15.1004 15.601 14.384 15.601 13.5004C15.601 12.6167 14.8846 11.9004 14.001 11.9004C13.1173 11.9004 12.401 12.6167 12.401 13.5004C12.401 14.384 13.1173 15.1004 14.001 15.1004Z" fill="#7B9061"/>
<path fill-rule="evenodd" clip-rule="evenodd" d="M6.36719 13.5004C7.38659 10.2547 10.4188 7.90039 14.001 7.90039C17.5831 7.90039 20.6153 10.2547 21.6347 13.5004C20.6153 16.7461 17.5831 19.1004 14.0009 19.1004C10.4188 19.1004 7.38661 16.7461 6.36719 13.5004ZM17.201 13.5004C17.201 15.2677 15.7683 16.7004 14.001 16.7004C12.2337 16.7004 10.801 15.2677 10.801 13.5004C10.801 11.7331 12.2337 10.3004 14.001 10.3004C15.7683 10.3004 17.201 11.7331 17.201 13.5004Z" fill="#7B9061"/>
</g>
</svg>
