<svg width="29" height="28" viewBox="0 0 29 28" fill="none" xmlns="http://www.w3.org/2000/svg">
<g style="mix-blend-mode:multiply">
<rect x="1" y="0.5" width="27" height="27" rx="7.5" fill="#F7F7F7"/>
<rect x="1" y="0.5" width="27" height="27" rx="7.5" stroke="#3A5913"/>
<g clip-path="url(#clip0_1516_174060)">
<path fill-rule="evenodd" clip-rule="evenodd" d="M9.46647 7.83392C9.15405 7.5215 8.64752 7.5215 8.3351 7.83392C8.02268 8.14634 8.02268 8.65288 8.3351 8.96529L19.5351 20.1653C19.8475 20.4777 20.354 20.4777 20.6665 20.1653C20.9789 19.8529 20.9789 19.3463 20.6665 19.0339L19.4879 17.8554C20.718 16.8735 21.652 15.5365 22.1347 13.9996C21.1153 10.7539 18.0831 8.39961 14.501 8.39961C13.2021 8.39961 11.9755 8.70914 10.891 9.25847L9.46647 7.83392ZM12.8753 11.2427L14.0864 12.4538C14.2186 12.4185 14.3576 12.3996 14.501 12.3996C15.3846 12.3996 16.101 13.116 16.101 13.9996C16.101 14.143 16.0821 14.282 16.0467 14.4142L17.2579 15.6253C17.5394 15.1489 17.701 14.5931 17.701 13.9996C17.701 12.2323 16.2683 10.7996 14.501 10.7996C13.9075 10.7996 13.3517 10.9612 12.8753 11.2427Z" fill="#7B9061"/>
<path d="M16.464 19.357L14.3005 17.1934C12.6929 17.0941 11.4065 15.8077 11.3072 14.2001L8.36872 11.2616C7.70129 12.0574 7.18588 12.985 6.86719 13.9996C7.88661 17.2453 10.9188 19.5996 14.5009 19.5996C15.1783 19.5996 15.8359 19.5154 16.464 19.357Z" fill="#7B9061"/>
</g>
</g>
<defs>
<clipPath id="clip0_1516_174060">
<rect width="16" height="16" fill="white" transform="translate(6.5 6)"/>
</clipPath>
</defs>
</svg>
