<svg width="24" height="25" viewBox="0 0 24 25" fill="none" xmlns="http://www.w3.org/2000/svg">
<path d="M7.5 11.791H4.6C4.03995 11.791 3.75992 11.791 3.54601 11.9C3.35785 11.9959 3.20487 12.1489 3.10899 12.337C3 12.5509 3 12.831 3 13.391V21.791M16.5 11.791H19.4C19.9601 11.791 20.2401 11.791 20.454 11.9C20.6422 11.9959 20.7951 12.1489 20.891 12.337C21 12.5509 21 12.831 21 13.391V21.791M16.5 21.791V6.99102C16.5 5.87091 16.5 5.31086 16.282 4.88303C16.0903 4.50671 15.7843 4.20075 15.408 4.009C14.9802 3.79102 14.4201 3.79102 13.3 3.79102H10.7C9.57989 3.79102 9.01984 3.79102 8.59202 4.009C8.21569 4.20075 7.90973 4.50671 7.71799 4.88303C7.5 5.31086 7.5 5.87091 7.5 6.99102V21.791M22 21.791H2M11 7.79102H13M11 11.791H13M11 15.791H13" stroke="#1D232A" stroke-width="1.5" stroke-linecap="round" stroke-linejoin="round"/>
</svg>
