<svg width="280" height="35" viewBox="0 0 280 35" fill="none" xmlns="http://www.w3.org/2000/svg">
<path d="M25.9837 1.84644L24.5137 0.377637C24.5137 0.377637 28.2694 -0.216725 29.9038 1.11203C30.8338 1.86804 30.8839 3.07044 30.8839 3.07044V33.1809L32.3539 34.4049C32.3539 34.4049 29.5218 34.5542 27.9438 34.1601C25.9837 33.6705 25.9837 31.9569 25.9837 31.9569V1.84644Z" fill="#008F32"/>
<path fill-rule="evenodd" clip-rule="evenodd" d="M28.4258 0.19759C29.0275 0.333166 29.6092 0.556709 30.0583 0.921812C30.5714 1.33897 30.8375 1.8755 30.9754 2.29871C31.0447 2.51115 31.0827 2.6983 31.1036 2.83326C31.114 2.90087 31.1202 2.95573 31.1238 2.99457C31.1256 3.01399 31.1267 3.02944 31.1275 3.0405L31.1283 3.05375L31.1285 3.05782L31.1285 3.0592L31.1285 3.05972C31.1285 3.05982 31.1286 3.06013 30.8838 3.07033L31.1285 3.05972L31.1288 3.06523V33.0659L32.991 34.6165L32.3667 34.6494L32.3538 34.4048C32.3667 34.6494 32.3668 34.6494 32.3667 34.6494L32.366 34.6495L32.3579 34.6499L32.3332 34.6511C32.3116 34.6521 32.2799 34.6535 32.2391 34.6552C32.1576 34.6586 32.0396 34.6629 31.8933 34.6669C31.6007 34.6748 31.194 34.6812 30.7373 34.6752C29.8303 34.6632 28.7031 34.6022 27.8843 34.3977C26.8286 34.134 26.2835 33.5319 26.0095 32.9844C25.8744 32.7144 25.807 32.4617 25.7732 32.276C25.7562 32.1829 25.7476 32.1059 25.7432 32.0509C25.741 32.0234 25.7399 32.0013 25.7393 31.9854C25.739 31.9774 25.7388 31.971 25.7387 31.9662L25.7386 31.9602L25.7386 31.9582L25.7386 31.9574C25.7386 31.9572 25.7386 31.9568 25.9836 31.9568H25.7386V1.94787L24 0.210745L24.4753 0.135531L24.5136 0.377527C24.4753 0.135531 24.4752 0.135543 24.4753 0.135531L24.4763 0.135362L24.4788 0.134982L24.4877 0.133619L24.5211 0.128683C24.5502 0.124487 24.5926 0.118583 24.6468 0.111588C24.7552 0.0976017 24.9113 0.0792369 25.1033 0.0614553C25.4871 0.0259295 26.0168 -0.00746 26.5995 0.00146203C27.1813 0.0103707 27.822 0.0615261 28.4258 0.19759ZM25.0425 0.55962L26.2286 1.74478L26.2286 31.956L26.2286 31.9565L26.2286 31.9572L26.2289 31.9669C26.2293 31.9763 26.23 31.9915 26.2317 32.0118C26.2349 32.0524 26.2416 32.1131 26.2553 32.1883C26.2827 32.3392 26.3378 32.5455 26.4477 32.7651C26.6638 33.1968 27.0987 33.6964 28.003 33.9223C28.7623 34.1119 29.8401 34.1733 30.7437 34.1852C31.1063 34.19 31.437 34.1868 31.7025 34.1813L30.6388 33.2956V3.07702L30.6385 3.07279C30.638 3.06586 30.6372 3.05474 30.6358 3.03981C30.6331 3.00993 30.6281 2.96496 30.6193 2.90802C30.6017 2.79391 30.5691 2.6332 30.5095 2.45055C30.3899 2.08356 30.166 1.64089 29.7492 1.30204C29.381 1.00276 28.8804 0.802314 28.3181 0.675619C27.758 0.549412 27.1534 0.500016 26.592 0.49142C26.0314 0.482838 25.52 0.514991 25.1485 0.549385C25.1117 0.552789 25.0764 0.556213 25.0425 0.55962Z" fill="#008F32"/>
<path d="M41.1736 32.2019C40.6836 34.8947 36.0284 34.6499 34.0684 34.4051L35.5384 33.6707V8.94587C37.9788 8.55765 41.1736 9.68027 41.1736 11.8835V32.2019Z" fill="#008F32"/>
<path fill-rule="evenodd" clip-rule="evenodd" d="M39.3735 9.22017C40.5179 9.74641 41.4186 10.6439 41.4186 11.8834V32.2239L41.4146 32.2456C41.1391 33.7598 39.6966 34.3995 38.2125 34.6467C36.7075 34.8973 35.0259 34.7715 34.038 34.6481L33.2344 34.5477L35.2934 33.5191V8.73664L35.4999 8.70379C36.7662 8.50234 38.2242 8.6917 39.3735 9.22017ZM35.7834 9.15884C36.908 9.02266 38.1721 9.20707 39.1688 9.66537C40.2318 10.1542 40.9286 10.9196 40.9286 11.8834V32.1791C40.7045 33.3435 39.5792 33.9223 38.132 34.1633C37.0543 34.3428 35.8688 34.3203 34.9336 34.2466L35.7834 33.8221V9.15884Z" fill="#008F32"/>
<path d="M45.7467 9.73307L44.5566 8.75977H48.3648C50.0308 8.75977 51.2209 10.7064 51.2209 11.923C51.2209 13.1396 51.4589 32.8491 51.4589 32.8491L52.8869 33.8111C47.9505 33.6864 46.7234 33.9217 45.9847 31.3891L45.7467 9.73307Z" fill="#008F32"/>
<path fill-rule="evenodd" clip-rule="evenodd" d="M43.8691 8.51465H48.3638C49.2974 8.51465 50.0752 9.05916 50.6087 9.73294C51.1406 10.4046 51.4649 11.2475 51.4649 11.9229C51.4649 12.5293 51.5244 17.7584 51.5839 22.8393C51.6137 25.379 51.6434 27.8807 51.6657 29.7474L51.7014 32.7175L53.7195 34.0771L52.8798 34.0559C52.4222 34.0444 51.9948 34.0359 51.596 34.028C50.9248 34.0147 50.3348 34.0029 49.8184 33.9809C48.9952 33.9457 48.333 33.8837 47.7971 33.7396C47.2541 33.5935 46.8309 33.3606 46.4958 32.9803C46.1656 32.6054 45.9376 32.1059 45.7485 31.4576L45.7391 31.4253L45.502 9.85013L43.8691 8.51465ZM51.4579 32.8489C51.2129 32.8519 51.2129 32.8518 51.2129 32.8517L51.1757 29.7533C51.1534 27.8865 51.1237 25.3848 51.0939 22.845C51.0344 17.7671 50.9749 12.5331 50.9749 11.9229C50.9749 11.3817 50.7042 10.6429 50.2246 10.0371C49.7466 9.43346 49.0963 9.00466 48.3638 9.00466H45.2423L45.9895 9.61579L46.2284 31.3524C46.4063 31.9529 46.6062 32.3643 46.8635 32.6564C47.1206 32.9482 47.4512 33.1391 47.9244 33.2664C48.4046 33.3956 49.0209 33.4564 49.8393 33.4913C50.3507 33.5132 50.9309 33.5247 51.5969 33.5379C51.7455 33.5408 51.8984 33.5438 52.0557 33.5471L51.2145 32.9804L51.2129 32.8517L51.4579 32.8489Z" fill="#008F32"/>
<path d="M51.2209 3.40657C51.2209 5.28796 49.729 6.81313 47.8887 6.81313C46.0485 6.81313 44.5566 5.28796 44.5566 3.40657C44.5566 1.52517 46.0485 0 47.8887 0C49.729 0 51.2209 1.52517 51.2209 3.40657Z" fill="#008F32"/>
<path d="M73.0757 3.71064C72.8164 0.22342 69.4539 0.397928 65.832 0.397929L67.3702 1.38582V3.71064V10.9757H73.0757V3.71064Z" fill="#008F32"/>
<path fill-rule="evenodd" clip-rule="evenodd" d="M66.6639 0.641759L67.6141 1.25204V10.7307H72.8297V3.71989C72.7668 2.89338 72.5229 2.30648 72.1571 1.8818C71.7886 1.45392 71.2775 1.16892 70.6442 0.981565C69.5585 0.660301 68.1737 0.64032 66.6639 0.641759ZM72.5284 1.56201C72.9779 2.08385 73.2511 2.78014 73.319 3.69252L73.3197 3.70159V11.2207H67.1241V1.5197L64.9961 0.15297L65.831 0.15297C65.9979 0.15297 66.1649 0.152568 66.3316 0.152166C67.9527 0.14826 69.5421 0.144431 70.7833 0.511686C71.4758 0.716601 72.0803 1.04183 72.5284 1.56201Z" fill="#008F32"/>
<path d="M73.0745 30.9149C72.8241 34.3723 68.4868 34.0475 66.0723 34.0475C66.0723 34.0475 67.7625 32.7715 67.7625 31.6091V23.7653L73.0745 23.4682L73.0745 30.9149Z" fill="#008F32"/>
<path fill-rule="evenodd" clip-rule="evenodd" d="M66.7274 33.8078C66.8439 33.6978 66.9715 33.5705 67.0993 33.43C67.318 33.1897 67.5422 32.9059 67.7129 32.6011C67.8825 32.298 68.0082 31.9581 68.0082 31.61V23.9979L72.8302 23.7282L72.8302 30.9068C72.7702 31.7102 72.4769 32.277 72.0462 32.6863C71.6085 33.1023 71.0121 33.3711 70.3268 33.5408C69.1797 33.8248 67.8491 33.8181 66.7274 33.8078ZM65.9252 33.853L65.3418 34.2934H66.073C66.2512 34.2934 66.4417 34.2953 66.6416 34.2973C67.7731 34.3084 69.2082 34.3226 70.4445 34.0165C71.1767 33.8352 71.8624 33.5369 72.3838 33.0415C72.9107 32.5407 73.2529 31.8542 73.3196 30.9335L73.3202 30.9247L73.3202 23.21L67.5182 23.5345V31.61C67.5182 31.8432 67.4325 32.0987 67.2853 32.3617C67.139 32.6231 66.9407 32.8763 66.7369 33.1002C66.5337 33.3234 66.3298 33.5125 66.1763 33.646C66.0997 33.7126 66.0361 33.765 65.9921 33.8004C65.97 33.8181 65.9529 33.8316 65.9415 33.8404L65.9288 33.8502L65.9259 33.8525L65.9252 33.853Z" fill="#008F32"/>
<path d="M62.9334 0.295932C62.9334 0.295932 58.3457 -0.333292 56.4141 2.83662V30.7759C57.2591 34.1221 59.0144 34.0551 63.6578 34.0481C62.9334 33.5604 61.8007 33.0319 61.5592 31.6061L61.2432 1.27129L62.9334 0.295932Z" fill="#008F32"/>
<path fill-rule="evenodd" clip-rule="evenodd" d="M56.6599 2.90624V30.7451C56.8655 31.549 57.1206 32.128 57.4447 32.5507C57.769 32.9735 58.1719 33.2524 58.6946 33.4386C59.2239 33.6271 59.8773 33.721 60.7 33.7656C61.3191 33.7991 62.0231 33.8044 62.8302 33.8041C62.1998 33.3738 61.5063 32.7557 61.3185 31.6469L61.3153 31.6279L60.9976 1.13054L62.1063 0.490742C61.6647 0.485263 61.0782 0.509166 60.4405 0.618908C59.1031 0.84907 57.5776 1.44925 56.6599 2.90624ZM62.9343 0.295823L62.9676 0.0530876L63.6766 0.150334L61.4906 1.41182L61.8049 31.5837C62.001 32.6964 62.7808 33.1938 63.4809 33.6405C63.5885 33.7091 63.6941 33.7765 63.7955 33.8447L64.4595 34.2918L63.659 34.293C63.5714 34.2931 63.4848 34.2933 63.3991 34.2934C62.3527 34.2953 61.4492 34.2969 60.6735 34.2549C59.8347 34.2094 59.1258 34.1123 58.5302 33.9002C57.9281 33.6857 57.4436 33.3544 57.0559 32.8488C56.672 32.3482 56.393 31.6897 56.1774 30.8357L56.1699 30.8062V2.76774L56.2057 2.70901C57.2239 1.03805 58.9356 0.380676 60.3574 0.135991C61.0708 0.0132152 61.7209 -0.00760857 62.1923 0.00208038C62.4283 0.00693109 62.6204 0.0194481 62.7542 0.0308546C62.8211 0.0365595 62.8735 0.0419919 62.9097 0.0460596C62.9277 0.0480936 62.9418 0.049787 62.9515 0.0510036L62.9628 0.052454L62.966 0.0528793L62.967 0.0530113L62.9676 0.0530876C62.9677 0.0531042 62.9676 0.0530876 62.9343 0.295823Z" fill="#008F32"/>
<path d="M215.021 14.6168V4.51855H216.731V8.90909H221.592V4.51855H223.301V14.6168H221.592V10.2263H216.731V14.6168H215.021Z" fill="white"/>
<path d="M203.744 14.6168L207.602 4.51855H209.515L213.341 14.6168H211.584L210.581 12.0138H206.52L205.516 14.6168H203.744ZM206.786 10.6967H210.299L208.542 6.07092L206.786 10.6967Z" fill="white"/>
<path d="M194.717 14.6168V4.51855H198.809C200.304 4.51855 201.412 4.91579 202.134 5.71027C202.855 6.4943 203.216 7.80101 203.216 9.6304C203.216 11.3553 202.86 12.6201 202.149 13.4251C201.439 14.2196 200.325 14.6168 198.809 14.6168H194.717ZM196.426 13.2996H198.543C199.201 13.2996 199.75 13.2056 200.189 13.0174C200.628 12.8188 200.958 12.4529 201.177 11.9198C201.397 11.3866 201.506 10.6235 201.506 9.6304C201.506 8.6373 201.407 7.86895 201.209 7.32536C201.01 6.78177 200.691 6.40021 200.252 6.18069C199.823 5.96116 199.254 5.8514 198.543 5.8514H196.426V13.2996Z" fill="white"/>
<path d="M184.258 14.6168V4.51855H185.763L191.032 11.9511V4.51855H192.725V14.6168H191.22L185.967 7.19992V14.6168H184.258Z" fill="white"/>
<path d="M180.568 14.6168V4.51855H182.278V14.6168H180.568Z" fill="white"/>
<path d="M168.715 14.6168V4.51855H170.424V13.2996H175.599V14.6168H168.715Z" fill="white"/>
<path d="M157.438 14.6168L161.295 4.51855H163.208L167.034 14.6168H165.278L164.274 12.0138H160.213L159.209 14.6168H157.438ZM160.48 10.6967H163.992L162.236 6.07092L160.48 10.6967Z" fill="white"/>
<path d="M152.395 14.7732C150.733 14.7732 149.478 14.3237 148.631 13.4247C147.795 12.5256 147.377 11.3078 147.377 9.7711C147.377 8.66301 147.56 7.7065 147.926 6.90157C148.292 6.08618 148.846 5.45896 149.588 5.01991C150.341 4.58086 151.292 4.36133 152.442 4.36133C153.038 4.36133 153.576 4.40314 154.057 4.48677C154.548 4.55995 155.008 4.66971 155.437 4.81606V6.29003C154.58 5.97642 153.628 5.81961 152.583 5.81961C151.297 5.81961 150.393 6.15936 149.87 6.83885C149.358 7.51834 149.102 8.49575 149.102 9.7711C149.102 10.9315 149.374 11.8148 149.917 12.4211C150.461 13.0274 151.302 13.3306 152.442 13.3306C153.341 13.3306 154.067 13.226 154.621 13.017V10.1945H152.097V9.08116H156.08V13.9421C155.756 14.1512 155.29 14.3446 154.684 14.5223C154.088 14.6896 153.325 14.7732 152.395 14.7732Z" fill="white"/>
<path d="M142.35 14.7732C140.688 14.7732 139.433 14.3237 138.586 13.4247C137.75 12.5256 137.332 11.3078 137.332 9.7711C137.332 8.66301 137.515 7.7065 137.881 6.90157C138.247 6.08618 138.801 5.45896 139.543 5.01991C140.296 4.58086 141.247 4.36133 142.397 4.36133C142.993 4.36133 143.531 4.40314 144.012 4.48677C144.503 4.55995 144.963 4.66971 145.392 4.81606V6.29003C144.535 5.97642 143.583 5.81961 142.538 5.81961C141.252 5.81961 140.348 6.15936 139.825 6.83885C139.313 7.51834 139.057 8.49575 139.057 9.7711C139.057 10.9315 139.329 11.8148 139.872 12.4211C140.416 13.0274 141.257 13.3306 142.397 13.3306C143.296 13.3306 144.022 13.226 144.576 13.017V10.1945H142.052V9.08116H146.035V13.9421C145.711 14.1512 145.245 14.3446 144.639 14.5223C144.043 14.6896 143.28 14.7732 142.35 14.7732Z" fill="white"/>
<path d="M127.188 14.6168V4.51855H128.693L133.961 11.9511V4.51855H135.655V14.6168H134.15L128.897 7.19992V14.6168H127.188Z" fill="white"/>
<path d="M120.934 14.7736C119.543 14.7736 118.461 14.4391 117.688 13.7701C116.925 13.101 116.543 12.1341 116.543 10.8692V4.51855H118.252V10.8064C118.252 11.6532 118.482 12.2856 118.942 12.7038C119.412 13.1219 120.076 13.331 120.934 13.331C121.78 13.331 122.434 13.1219 122.894 12.7038C123.364 12.2856 123.599 11.6532 123.599 10.8064V4.51855H125.293V10.8692C125.293 12.1341 124.911 13.101 124.148 13.7701C123.385 14.4391 122.313 14.7736 120.934 14.7736Z" fill="white"/>
<path d="M110.328 14.6168V5.8514H107.098V4.51855H115.252V5.8514H112.037V14.6168H110.328Z" fill="white"/>
<path d="M97.7637 14.6168L101.621 4.51855H103.534L107.36 14.6168H105.604L104.6 12.0138H100.539L99.5356 14.6168H97.7637ZM100.806 10.6967H104.318L102.562 6.07092L100.806 10.6967Z" fill="white"/>
<path d="M88.7207 14.6168V4.51855H93.613C94.6166 4.51855 95.3588 4.75376 95.8397 5.22418C96.3205 5.69459 96.561 6.3584 96.561 7.2156C96.561 7.75919 96.4512 8.21915 96.2317 8.59549C96.0121 8.96136 95.7194 9.23839 95.3536 9.42655C95.8449 9.56245 96.2317 9.80811 96.5139 10.1635C96.8066 10.5085 96.953 11.0207 96.953 11.7002C96.953 12.6829 96.6864 13.4146 96.1533 13.8955C95.6306 14.3764 94.857 14.6168 93.8325 14.6168H88.7207ZM90.4299 8.83069H93.3778C93.9528 8.83069 94.3605 8.70002 94.6009 8.43868C94.8518 8.16688 94.9772 7.80623 94.9772 7.35672C94.9772 6.83404 94.8518 6.44726 94.6009 6.19637C94.35 5.93503 93.8796 5.80436 93.1896 5.80436H90.4299V8.83069ZM90.4299 13.3624H93.4719C94.0782 13.3624 94.5225 13.2369 94.8047 12.986C95.087 12.7247 95.2281 12.2752 95.2281 11.6375C95.2281 11.1148 95.087 10.728 94.8047 10.4771C94.5329 10.2158 94.0312 10.0851 93.2994 10.0851H90.4299V13.3624Z" fill="white"/>
<path fill-rule="evenodd" clip-rule="evenodd" d="M224.001 19.6734H88.0215V18.6934H224.001V19.6734Z" fill="white"/>
<path d="M169.484 23.7471C170.893 23.7471 171.934 23.9461 172.608 24.3443C173.282 24.7373 173.619 25.332 173.619 26.1282C173.619 27.3482 172.889 28.2287 171.429 28.7697C173.22 29.0403 174.116 29.857 174.116 31.2198C174.116 32.1182 173.754 32.8404 173.029 33.3866C172.304 33.9277 171.033 34.1982 169.216 34.1982L165.832 34.2058C165.766 34.0323 165.732 33.869 165.732 33.7158C165.732 33.6137 165.758 33.5397 165.809 33.4938C165.865 33.4427 165.954 33.4172 166.077 33.4172H166.644C166.679 32.7026 166.697 31.1611 166.697 28.7927C166.697 26.6642 166.679 25.2452 166.644 24.5357H165.832C165.766 24.3621 165.732 24.2014 165.732 24.0533C165.732 23.9461 165.758 23.8696 165.809 23.8236C165.865 23.7726 165.954 23.7471 166.077 23.7471H169.484ZM168.397 31.1815C168.397 32.0799 168.461 32.6209 168.588 32.8047C168.721 32.9885 169.196 33.0803 170.012 33.0803C170.809 33.0803 171.378 32.9425 171.72 32.6669C172.067 32.3861 172.24 31.9446 172.24 31.3423C172.24 30.6787 172.021 30.1709 171.582 29.8187C171.143 29.4614 170.474 29.2827 169.576 29.2827C169.147 29.2827 168.754 29.3082 168.397 29.3593V31.1815ZM168.397 28.2567C168.693 28.2976 169.022 28.318 169.385 28.318C170.222 28.318 170.824 28.17 171.192 27.8739C171.559 27.5779 171.743 27.1491 171.743 26.5876C171.743 25.9955 171.559 25.5617 171.192 25.286C170.829 25.0053 170.26 24.8649 169.484 24.8649C169.117 24.8649 168.767 24.8904 168.435 24.9415C168.415 25.5948 168.402 26.6999 168.397 28.2567Z" fill="white"/>
<path d="M161.238 24.5357C161.172 24.3621 161.139 24.2014 161.139 24.0533C161.139 23.9461 161.164 23.8696 161.215 23.8236C161.272 23.7726 161.361 23.7471 161.483 23.7471H164.439C164.5 23.9002 164.531 24.0482 164.531 24.1911C164.531 24.3188 164.505 24.4081 164.454 24.4591C164.403 24.5102 164.314 24.5357 164.186 24.5357H163.643C163.617 25.2452 163.607 26.9602 163.612 29.6809C163.612 31.5133 163.257 32.7511 162.548 33.3943C161.838 34.0323 160.771 34.3513 159.347 34.3513C158.127 34.3513 157.27 34.1191 156.775 33.6546C156.28 33.1901 156.032 32.2739 156.032 30.9059C156.032 27.3686 156.012 25.2452 155.971 24.5357H155.297C155.236 24.3621 155.205 24.2014 155.205 24.0533C155.205 23.9461 155.231 23.8696 155.282 23.8236C155.338 23.7726 155.427 23.7471 155.55 23.7471H158.536C158.602 23.9002 158.635 24.0482 158.635 24.1911C158.635 24.3188 158.61 24.4081 158.559 24.4591C158.508 24.5102 158.416 24.5357 158.283 24.5357H157.785C157.744 25.3728 157.724 27.0955 157.724 29.7038C157.724 31.1739 157.908 32.1309 158.275 32.575C158.648 33.014 159.194 33.2335 159.914 33.2335C160.756 33.2335 161.338 33.0114 161.66 32.5674C161.981 32.1233 162.142 31.2862 162.142 30.056C162.142 27.2129 162.129 25.3728 162.104 24.5357H161.238Z" fill="white"/>
<path d="M150.433 33.2105C151.985 33.2105 153.225 33.0318 154.154 32.6745C154.318 32.9553 154.399 33.2462 154.399 33.5474C154.399 33.772 154.325 33.9379 154.177 34.0451C154.029 34.1471 153.728 34.1982 153.274 34.1982L147.164 34.2058C147.098 34.0323 147.064 33.869 147.064 33.7158C147.064 33.6137 147.09 33.5397 147.141 33.4938C147.197 33.4427 147.286 33.4172 147.409 33.4172H147.976C148.011 32.7026 148.029 30.8804 148.029 27.9505C148.029 26.3835 148.009 25.2452 147.968 24.5357H147.164C147.098 24.3621 147.064 24.2014 147.064 24.0533C147.064 23.9461 147.09 23.8696 147.141 23.8236C147.197 23.7726 147.286 23.7471 147.409 23.7471H150.724C150.791 23.9002 150.824 24.0482 150.824 24.1911C150.824 24.3188 150.798 24.4081 150.747 24.4591C150.696 24.5102 150.604 24.5357 150.472 24.5357H149.783C149.747 25.2452 149.729 26.4141 149.729 28.0424C149.729 30.911 149.747 32.6337 149.783 33.2105H150.433Z" fill="white"/>
<path d="M142.724 33.2333C143.633 33.2333 144.449 32.9985 145.174 32.5289C145.445 32.8096 145.58 33.1031 145.58 33.4094C145.58 33.6952 145.251 33.9249 144.592 34.0985C143.934 34.2669 143.143 34.3511 142.219 34.3511C140.744 34.3511 139.656 34.004 138.957 33.3098C138.258 32.6157 137.908 31.3549 137.908 29.5275C137.908 27.4909 138.319 25.9928 139.141 25.0332C139.963 24.0736 141.172 23.5938 142.77 23.5938C143.658 23.5938 144.329 23.6652 144.784 23.8081C145.238 23.9511 145.465 24.1935 145.465 24.5355C145.465 24.8162 145.325 25.0944 145.044 25.3701C144.125 24.9311 143.245 24.7116 142.403 24.7116C141.535 24.7116 140.881 25.0255 140.443 25.6533C140.004 26.2761 139.784 27.3327 139.784 28.8231C139.784 30.4718 140.014 31.6203 140.473 32.2686C140.938 32.9117 141.688 33.2333 142.724 33.2333Z" fill="white"/>
</svg>
