<svg width="44" height="44" viewBox="0 0 44 44" fill="none" xmlns="http://www.w3.org/2000/svg">
<g filter="url(#filter0_d_658_92407)">
<rect x="2" y="1" width="40" height="40" rx="8" fill="white"/>
<rect x="2.5" y="1.5" width="39" height="39" rx="7.5" stroke="#B9C7C0"/>
<path d="M16.1667 18.5V25.1667M19.9167 18.5V25.1667M24.0833 18.5V25.1667M27.8333 18.5V25.1667M14.5 26.5L14.5 27.1667C14.5 27.6334 14.5 27.8667 14.5908 28.045C14.6707 28.2018 14.7982 28.3293 14.955 28.4092C15.1333 28.5 15.3666 28.5 15.8333 28.5H28.1667C28.6334 28.5 28.8667 28.5 29.045 28.4092C29.2018 28.3293 29.3293 28.2018 29.4092 28.045C29.5 27.8667 29.5 27.6334 29.5 27.1667V26.5C29.5 26.0333 29.5 25.7999 29.4092 25.6217C29.3293 25.4649 29.2018 25.3374 29.045 25.2575C28.8667 25.1667 28.6334 25.1667 28.1667 25.1667H15.8333C15.3666 25.1667 15.1333 25.1667 14.955 25.2575C14.7982 25.3374 14.6707 25.4649 14.5908 25.6217C14.5 25.7999 14.5 26.0333 14.5 26.5ZM21.7108 13.5643L15.5441 14.9346C15.1715 15.0174 14.9853 15.0588 14.8462 15.159C14.7236 15.2474 14.6273 15.3674 14.5676 15.5063C14.5 15.6638 14.5 15.8546 14.5 16.2362L14.5 17.1667C14.5 17.6334 14.5 17.8667 14.5908 18.045C14.6707 18.2018 14.7982 18.3293 14.955 18.4092C15.1333 18.5 15.3666 18.5 15.8333 18.5H28.1667C28.6334 18.5 28.8667 18.5 29.045 18.4092C29.2018 18.3293 29.3293 18.2018 29.4092 18.045C29.5 17.8667 29.5 17.6334 29.5 17.1667V16.2362C29.5 15.8546 29.5 15.6638 29.4324 15.5063C29.3727 15.3674 29.2764 15.2474 29.1538 15.159C29.0147 15.0588 28.8285 15.0174 28.4559 14.9346L22.2892 13.5643C22.1813 13.5403 22.1273 13.5283 22.0728 13.5235C22.0244 13.5193 21.9756 13.5193 21.9272 13.5235C21.8727 13.5283 21.8187 13.5403 21.7108 13.5643Z" stroke="#485E53" stroke-width="1.66667" stroke-linecap="round" stroke-linejoin="round"/>
</g>
<defs>
<filter id="filter0_d_658_92407" x="0" y="0" width="44" height="44" filterUnits="userSpaceOnUse" color-interpolation-filters="sRGB">
<feFlood flood-opacity="0" result="BackgroundImageFix"/>
<feColorMatrix in="SourceAlpha" type="matrix" values="0 0 0 0 0 0 0 0 0 0 0 0 0 0 0 0 0 0 127 0" result="hardAlpha"/>
<feOffset dy="1"/>
<feGaussianBlur stdDeviation="1"/>
<feColorMatrix type="matrix" values="0 0 0 0 0.0627451 0 0 0 0 0.0941176 0 0 0 0 0.156863 0 0 0 0.05 0"/>
<feBlend mode="normal" in2="BackgroundImageFix" result="effect1_dropShadow_658_92407"/>
<feBlend mode="normal" in="SourceGraphic" in2="effect1_dropShadow_658_92407" result="shape"/>
</filter>
</defs>
</svg>
