<svg width="24" height="25" viewBox="0 0 24 25" fill="none" xmlns="http://www.w3.org/2000/svg">
<path d="M20 13.291V7.59102C20 5.91086 20 5.07078 19.673 4.42904C19.3854 3.86456 18.9265 3.40562 18.362 3.118C17.7202 2.79102 16.8802 2.79102 15.2 2.79102H8.8C7.11984 2.79102 6.27976 2.79102 5.63803 3.118C5.07354 3.40562 4.6146 3.86456 4.32698 4.42904C4 5.07078 4 5.91086 4 7.59102V17.991C4 19.6712 4 20.5113 4.32698 21.153C4.6146 21.7175 5.07354 22.1764 5.63803 22.464C6.27976 22.791 7.11984 22.791 8.8 22.791H12M14 11.791H8M10 15.791H8M16 7.79102H8M14.5 19.791L16.5 21.791L21 17.291" stroke="#1D232A" stroke-width="1.5" stroke-linecap="round" stroke-linejoin="round"/>
</svg>
