<svg width="24" height="25" viewBox="0 0 24 25" fill="none" xmlns="http://www.w3.org/2000/svg">
<path d="M9 9.79102H9.01M15 15.791H15.01M16 8.79102L8 16.791M9.5 9.79102C9.5 10.0672 9.27614 10.291 9 10.291C8.72386 10.291 8.5 10.0672 8.5 9.79102C8.5 9.51487 8.72386 9.29102 9 9.29102C9.27614 9.29102 9.5 9.51487 9.5 9.79102ZM15.5 15.791C15.5 16.0672 15.2761 16.291 15 16.291C14.7239 16.291 14.5 16.0672 14.5 15.791C14.5 15.5149 14.7239 15.291 15 15.291C15.2761 15.291 15.5 15.5149 15.5 15.791ZM22 12.791C22 18.3139 17.5228 22.791 12 22.791C6.47715 22.791 2 18.3139 2 12.791C2 7.26817 6.47715 2.79102 12 2.79102C17.5228 2.79102 22 7.26817 22 12.791Z" stroke="#1D232A" stroke-width="1.5" stroke-linecap="round" stroke-linejoin="round"/>
</svg>
