<svg width="16" height="16" viewBox="0 0 16 16" fill="none" xmlns="http://www.w3.org/2000/svg">
<g clip-path="url(#clip0_2467_5197)">
<path d="M8.00004 9.99967C9.10461 9.99967 10 9.10424 10 7.99967C10 6.89511 9.10461 5.99967 8.00004 5.99967C6.89547 5.99967 6.00004 6.89511 6.00004 7.99967C6.00004 9.10424 6.89547 9.99967 8.00004 9.99967Z" stroke="#2B3831" stroke-width="1.5" stroke-linecap="round" stroke-linejoin="round"/>
<path d="M12.4849 9.81786C12.4042 10.0007 12.3801 10.2034 12.4158 10.4C12.4514 10.5966 12.5452 10.7781 12.6849 10.9209L12.7213 10.9573C12.834 11.0698 12.9234 11.2035 12.9844 11.3507C13.0454 11.4978 13.0768 11.6555 13.0768 11.8148C13.0768 11.9741 13.0454 12.1318 12.9844 12.279C12.9234 12.4261 12.834 12.5598 12.7213 12.6724C12.6087 12.7851 12.475 12.8745 12.3278 12.9355C12.1807 12.9965 12.023 13.0279 11.8637 13.0279C11.7044 13.0279 11.5467 12.9965 11.3995 12.9355C11.2524 12.8745 11.1187 12.7851 11.0061 12.6724L10.9697 12.636C10.8269 12.4963 10.6455 12.4026 10.4489 12.3669C10.2523 12.3313 10.0495 12.3554 9.86671 12.436C9.68745 12.5129 9.53458 12.6404 9.42689 12.803C9.31921 12.9656 9.26142 13.1562 9.26065 13.3512V13.4542C9.26065 13.7757 9.13294 14.084 8.90562 14.3113C8.67831 14.5386 8.37 14.6663 8.04853 14.6663C7.72705 14.6663 7.41874 14.5386 7.19143 14.3113C6.96411 14.084 6.8364 13.7757 6.8364 13.4542V13.3997C6.83171 13.1991 6.76678 13.0045 6.65005 12.8413C6.53332 12.6781 6.37018 12.5538 6.18186 12.4845C5.99906 12.4038 5.79629 12.3798 5.59968 12.4154C5.40308 12.4511 5.22166 12.5448 5.07883 12.6845L5.04247 12.7209C4.92989 12.8336 4.79621 12.923 4.64906 12.984C4.50191 13.045 4.34418 13.0764 4.18489 13.0764C4.0256 13.0764 3.86787 13.045 3.72072 12.984C3.57357 12.923 3.43989 12.8336 3.32731 12.7209C3.21461 12.6083 3.12521 12.4746 3.06421 12.3275C3.00321 12.1803 2.97181 12.0226 2.97181 11.8633C2.97181 11.704 3.00321 11.5463 3.06421 11.3991C3.12521 11.252 3.21461 11.1183 3.32731 11.0057L3.36368 10.9694C3.5034 10.8265 3.59712 10.6451 3.63277 10.4485C3.66842 10.2519 3.64435 10.0491 3.56368 9.86634C3.48685 9.68709 3.35929 9.53421 3.19669 9.42653C3.03409 9.31885 2.84355 9.26106 2.64853 9.26028H2.5455C2.22402 9.26028 1.91571 9.13258 1.6884 8.90526C1.46108 8.67794 1.33337 8.36963 1.33337 8.04816C1.33337 7.72668 1.46108 7.41838 1.6884 7.19106C1.91571 6.96374 2.22402 6.83604 2.5455 6.83604H2.60004C2.80064 6.83135 2.9952 6.76641 3.1584 6.64968C3.32161 6.53295 3.44593 6.36982 3.51519 6.18149C3.59587 5.9987 3.61993 5.79592 3.58429 5.59932C3.54864 5.40271 3.45491 5.2213 3.31519 5.07846L3.27883 5.0421C3.16613 4.92953 3.07673 4.79584 3.01573 4.64869C2.95473 4.50154 2.92333 4.34381 2.92333 4.18452C2.92333 4.02523 2.95473 3.8675 3.01573 3.72035C3.07673 3.5732 3.16613 3.43952 3.27883 3.32695C3.3914 3.21425 3.52509 3.12484 3.67223 3.06384C3.81938 3.00285 3.97711 2.97145 4.1364 2.97145C4.2957 2.97145 4.45343 3.00285 4.60057 3.06384C4.74772 3.12484 4.88141 3.21425 4.99398 3.32695L5.03034 3.36331C5.17318 3.50303 5.3546 3.59676 5.5512 3.6324C5.7478 3.66805 5.95058 3.64399 6.13337 3.56331H6.18186C6.36111 3.48648 6.51399 3.35892 6.62167 3.19632C6.72936 3.03372 6.78714 2.84318 6.78792 2.64816V2.54513C6.78792 2.22365 6.91563 1.91535 7.14294 1.68803C7.37026 1.46071 7.67857 1.33301 8.00004 1.33301C8.32152 1.33301 8.62982 1.46071 8.85714 1.68803C9.08446 1.91535 9.21216 2.22365 9.21216 2.54513V2.59967C9.21294 2.7947 9.27073 2.98524 9.37841 3.14784C9.48609 3.31044 9.63897 3.438 9.81822 3.51483C10.001 3.5955 10.2038 3.61957 10.4004 3.58392C10.597 3.54827 10.7784 3.45455 10.9213 3.31483L10.9576 3.27846C11.0702 3.16576 11.2039 3.07636 11.351 3.01536C11.4982 2.95436 11.6559 2.92296 11.8152 2.92296C11.9745 2.92296 12.1322 2.95436 12.2794 3.01536C12.4265 3.07636 12.5602 3.16576 12.6728 3.27846C12.7855 3.39104 12.8749 3.52472 12.9359 3.67187C12.9969 3.81902 13.0283 3.97675 13.0283 4.13604C13.0283 4.29533 12.9969 4.45306 12.9359 4.60021C12.8749 4.74736 12.7855 4.88104 12.6728 4.99361L12.6364 5.02998C12.4967 5.17281 12.403 5.35423 12.3673 5.55083C12.3317 5.74744 12.3557 5.95021 12.4364 6.13301V6.18149C12.5132 6.36075 12.6408 6.51362 12.8034 6.62131C12.966 6.72899 13.1565 6.78678 13.3516 6.78755H13.4546C13.7761 6.78755 14.0844 6.91526 14.3117 7.14258C14.539 7.36989 14.6667 7.6782 14.6667 7.99967C14.6667 8.32115 14.539 8.62946 14.3117 8.85677C14.0844 9.08409 13.7761 9.2118 13.4546 9.2118H13.4C13.205 9.21257 13.0145 9.27036 12.8519 9.37804C12.6893 9.48573 12.5617 9.6386 12.4849 9.81786Z" stroke="#2B3831" stroke-width="1.5" stroke-linecap="round" stroke-linejoin="round"/>
</g>
<defs>
<clipPath id="clip0_2467_5197">
<rect width="16" height="16" fill="white"/>
</clipPath>
</defs>
</svg>
