<svg width="61" height="60" viewBox="0 0 61 60" fill="none" xmlns="http://www.w3.org/2000/svg">
<g style="mix-blend-mode:multiply">
<rect x="1" y="0.5" width="59" height="59" rx="7.5" fill="#F7F7F7"/>
<rect x="1" y="0.5" width="59" height="59" rx="7.5" stroke="#3A5913"/>
<path d="M13.834 26.6663H47.1673V23.6663C47.1673 21.7995 47.1673 20.8661 46.804 20.153C46.4844 19.5258 45.9745 19.0159 45.3473 18.6963C44.6342 18.333 43.7008 18.333 41.834 18.333H19.1673C17.3005 18.333 16.3671 18.333 15.654 18.6963C15.0268 19.0159 14.5169 19.5258 14.1973 20.153C13.834 20.8661 13.834 21.7995 13.834 23.6663V26.6663Z" fill="#7B9061"/>
<path d="M42.1673 44.9997V34.9997M37.1673 39.9997H47.1673M47.1673 26.6663H13.834M47.1673 29.9997V23.6663C47.1673 21.7995 47.1673 20.8661 46.804 20.153C46.4844 19.5258 45.9745 19.0159 45.3473 18.6963C44.6342 18.333 43.7008 18.333 41.834 18.333H19.1673C17.3005 18.333 16.3671 18.333 15.654 18.6963C15.0268 19.0159 14.5169 19.5258 14.1973 20.153C13.834 20.8661 13.834 21.7995 13.834 23.6663V36.333C13.834 38.1998 13.834 39.1333 14.1973 39.8463C14.5169 40.4735 15.0268 40.9834 15.654 41.303C16.3671 41.6663 17.3005 41.6663 19.1673 41.6663H30.5007" stroke="#7B9061" stroke-width="2" stroke-linecap="round" stroke-linejoin="round"/>
</g>
</svg>
