<svg width="61" height="60" viewBox="0 0 61 60" fill="none" xmlns="http://www.w3.org/2000/svg">
<g style="mix-blend-mode:multiply">
<rect x="1" y="0.5" width="59" height="59" rx="7.5" fill="#F7F7F7"/>
<rect x="1" y="0.5" width="59" height="59" rx="7.5" stroke="#3A5913"/>
<path d="M26.5 28C29.8137 28 32.5 25.3137 32.5 22C32.5 18.6863 29.8137 16 26.5 16C23.1863 16 20.5 18.6863 20.5 22C20.5 25.3137 23.1863 28 26.5 28Z" fill="#7B9061"/>
<path d="M26.5 32C33.1274 32 38.5 37.3726 38.5 44H14.5C14.5 37.3726 19.8726 32 26.5 32Z" fill="#7B9061"/>
<path d="M42.5 24C42.5 22.8954 41.6046 22 40.5 22C39.3954 22 38.5 22.8954 38.5 24V26H36.5C35.3954 26 34.5 26.8954 34.5 28C34.5 29.1046 35.3954 30 36.5 30H38.5V32C38.5 33.1046 39.3954 34 40.5 34C41.6046 34 42.5 33.1046 42.5 32V30H44.5C45.6046 30 46.5 29.1046 46.5 28C46.5 26.8954 45.6046 26 44.5 26H42.5V24Z" fill="#7B9061"/>
<path d="M26.5 28C29.8137 28 32.5 25.3137 32.5 22C32.5 18.6863 29.8137 16 26.5 16C23.1863 16 20.5 18.6863 20.5 22C20.5 25.3137 23.1863 28 26.5 28Z" stroke="#1D232A"/>
<path d="M26.5 32C33.1274 32 38.5 37.3726 38.5 44H14.5C14.5 37.3726 19.8726 32 26.5 32Z" stroke="#1D232A"/>
<path d="M42.5 24C42.5 22.8954 41.6046 22 40.5 22C39.3954 22 38.5 22.8954 38.5 24V26H36.5C35.3954 26 34.5 26.8954 34.5 28C34.5 29.1046 35.3954 30 36.5 30H38.5V32C38.5 33.1046 39.3954 34 40.5 34C41.6046 34 42.5 33.1046 42.5 32V30H44.5C45.6046 30 46.5 29.1046 46.5 28C46.5 26.8954 45.6046 26 44.5 26H42.5V24Z" stroke="#1D232A"/>
</g>
</svg>
