<svg width="61" height="60" viewBox="0 0 61 60" fill="none" xmlns="http://www.w3.org/2000/svg">
<g style="mix-blend-mode:multiply">
<rect x="1" y="0.5" width="59" height="59" rx="7.5" fill="#F7F7F7"/>
<rect x="1" y="0.5" width="59" height="59" rx="7.5" stroke="#3A5913"/>
<path d="M18.1673 28.3333H23.0007V20.3333C23.0007 18.4665 23.0007 17.5331 23.364 16.82C23.6835 16.1928 24.1935 15.6829 24.8207 15.3633C25.5337 15 26.4671 15 28.334 15H32.6673C34.5342 15 35.4676 15 36.1806 15.3633C36.8078 15.6829 37.3178 16.1928 37.6373 16.82C38.0007 17.5331 38.0007 18.4665 38.0007 20.3333V28.3333H42.834C43.7674 28.3333 44.2341 28.3333 44.5906 28.515C44.9042 28.6748 45.1592 28.9297 45.319 29.2433C45.5007 29.5999 45.5007 30.0666 45.5007 31V45H38.0007H23.0007H15.5007V31C15.5007 30.0666 15.5007 29.5999 15.6823 29.2433C15.8421 28.9297 16.0971 28.6748 16.4107 28.515C16.7672 28.3333 17.2339 28.3333 18.1673 28.3333Z" fill="#7B9061"/>
<path d="M23.0007 28.3333H18.1673C17.2339 28.3333 16.7672 28.3333 16.4107 28.515C16.0971 28.6748 15.8421 28.9297 15.6823 29.2433C15.5007 29.5999 15.5007 30.0666 15.5007 31V45M38.0007 28.3333H42.834C43.7674 28.3333 44.2341 28.3333 44.5906 28.515C44.9042 28.6748 45.1592 28.9297 45.319 29.2433C45.5007 29.5999 45.5007 30.0666 45.5007 31V45M38.0007 45V20.3333C38.0007 18.4665 38.0007 17.5331 37.6373 16.82C37.3178 16.1928 36.8078 15.6829 36.1806 15.3633C35.4676 15 34.5342 15 32.6673 15H28.334C26.4671 15 25.5337 15 24.8207 15.3633C24.1935 15.6829 23.6835 16.1928 23.364 16.82C23.0007 17.5331 23.0007 18.4665 23.0007 20.3333V45M47.1673 45H13.834M28.834 21.6667H32.1673M28.834 28.3333H32.1673M28.834 35H32.1673" stroke="#F7F7F7" stroke-width="2" stroke-linecap="round" stroke-linejoin="round"/>
</g>
</svg>
