<?xml version="1.0" standalone="no"?>
<!DOCTYPE svg PUBLIC "-//W3C//DTD SVG 20010904//EN"
 "http://www.w3.org/TR/2001/REC-SVG-20010904/DTD/svg10.dtd">
<svg version="1.0" xmlns="http://www.w3.org/2000/svg"
 width="101.000000pt" height="101.000000pt" viewBox="0 0 101.000000 101.000000"
 preserveAspectRatio="xMidYMid meet">
<metadata>
Created by potrace 1.14, written by Peter Selinger 2001-2017
</metadata>
<g transform="translate(0.000000,101.000000) scale(0.100000,-0.100000)"
fill="#000000" stroke="none">
<path d="M10 853 c0 -5 6 -15 12 -21 10 -10 13 -91 13 -327 0 -363 -4 -347 91
-352 56 -2 57 -2 38 18 -17 19 -19 43 -19 335 0 279 -2 315 -17 330 -18 18
-118 33 -118 17z"/>
<path d="M442 837 c-39 -42 -23 -99 33 -113 50 -12 94 41 75 90 -18 48 -73 60
-108 23z"/>
<path d="M697 844 c-13 -7 -27 -23 -33 -36 -5 -13 -9 -153 -9 -312 l1 -288 27
-24 c22 -19 40 -24 82 -24 l54 0 -24 25 c-25 24 -25 24 -26 247 0 123 -1 262
-2 310 -1 76 2 90 19 103 18 14 16 15 -23 13 -23 -1 -53 -7 -66 -14z"/>
<path d="M858 844 c20 -15 22 -24 22 -115 l0 -99 63 0 63 0 -1 83 c0 45 -4 92
-8 104 -9 25 -53 40 -122 41 -39 1 -40 1 -17 -14z"/>
<path d="M248 682 c-17 -3 -18 -24 -18 -254 0 -227 -2 -252 -17 -265 -16 -12
-10 -14 46 -10 98 6 97 1 96 265 -1 242 -1 244 -60 260 -17 5 -38 6 -47 4z"/>
<path d="M423 673 c13 -15 16 -53 18 -242 2 -203 4 -226 21 -243 10 -10 28
-18 41 -19 12 0 39 -2 61 -3 36 -2 37 -1 20 13 -17 14 -19 32 -21 151 0 74 -1
174 -2 221 -1 112 -13 129 -95 135 -56 4 -58 3 -43 -13z"/>
<path d="M923 382 c-26 -3 -33 -8 -34 -25 0 -12 -2 -52 -2 -88 -2 -50 -7 -72
-21 -88 l-19 -21 42 0 c48 0 110 23 112 42 5 53 5 178 0 179 -16 4 -49 4 -78
1z"/>
</g>
</svg>
