<svg width="409" height="71" viewBox="0 0 409 71" fill="none" xmlns="http://www.w3.org/2000/svg">
<path d="M4.04805 3.76788L1.04805 0.770424C1.04805 0.770424 8.71246 -0.44252 12.048 2.26915C13.9459 3.81196 14.048 6.26576 14.048 6.26576V67.7137L17.048 70.2115C17.048 70.2115 11.2684 70.5164 8.04805 69.712C4.04805 68.7128 4.04805 65.2158 4.04805 65.2158V3.76788Z" fill="#008F32"/>
<path fill-rule="evenodd" clip-rule="evenodd" d="M9.03202 0.403217C10.2598 0.679893 11.4469 1.13609 12.3635 1.88117C13.4106 2.73248 13.9537 3.82741 14.2351 4.69108C14.3764 5.12462 14.4541 5.50655 14.4966 5.78197C14.5179 5.91993 14.5305 6.0319 14.5378 6.11115C14.5415 6.15079 14.5439 6.18232 14.5454 6.20488L14.547 6.23193L14.5474 6.24023L14.5475 6.24305L14.5476 6.24412C14.5476 6.24432 14.5476 6.24496 14.0481 6.26576L14.5476 6.24412L14.5481 6.25536V67.4794L18.3484 70.6437L17.0744 70.7109L17.0481 70.2115C17.0744 70.7109 17.0745 70.7108 17.0744 70.7109L17.073 70.7109L17.0564 70.7118L17.0059 70.7142C16.9619 70.7163 16.8972 70.7192 16.814 70.7226C16.6476 70.7295 16.4069 70.7383 16.1082 70.7464C15.5111 70.7626 14.6811 70.7757 13.7491 70.7634C11.8983 70.739 9.59785 70.6145 7.92689 70.1971C5.77237 69.6589 4.66002 68.4302 4.10092 67.313C3.82518 66.762 3.6876 66.2463 3.61863 65.8673C3.58406 65.6773 3.56645 65.5201 3.55746 65.4079C3.55297 65.3517 3.55062 65.3066 3.54939 65.2742C3.54878 65.2579 3.54844 65.2448 3.54826 65.235L3.54809 65.2228L3.54806 65.2187L3.54806 65.2171C3.54806 65.2168 3.54806 65.2158 4.04806 65.2158H3.54806V3.97511L0 0.430063L0.9699 0.27657L1.04806 0.770424C0.9699 0.27657 0.969742 0.276595 0.9699 0.27657L0.972099 0.276224L0.97708 0.275449L0.995255 0.272667L1.0635 0.262594C1.12281 0.254033 1.20927 0.241983 1.31994 0.227709C1.54125 0.199165 1.85967 0.161688 2.25165 0.1254C3.03479 0.0529004 4.11571 -0.0152393 5.30487 0.00296838C6.49224 0.0211487 7.79978 0.125544 9.03202 0.403217ZM2.12738 1.14203L4.54806 3.56065L4.54805 65.2142L4.54806 65.2153L4.54809 65.2167L4.54868 65.2364C4.5494 65.2557 4.55096 65.2867 4.55427 65.3281C4.56091 65.411 4.57455 65.5348 4.60248 65.6883C4.65851 65.9962 4.77093 66.4173 4.99519 66.8654C5.43609 67.7465 6.32374 68.7659 8.16923 69.2269C9.71861 69.6139 11.9182 69.7392 13.7623 69.7635C14.5021 69.7732 15.1771 69.7667 15.7188 69.7554L13.5481 67.948V6.27942L13.5475 6.27078C13.5466 6.25665 13.5449 6.23394 13.5421 6.20348C13.5364 6.14251 13.5262 6.05072 13.5083 5.93453C13.4723 5.70165 13.4058 5.3737 13.2843 5.00094C13.0403 4.25201 12.5833 3.34863 11.7327 2.65712C10.9814 2.04637 9.95958 1.63731 8.81219 1.37876C7.66922 1.1212 6.43524 1.02039 5.28956 1.00285C4.14566 0.985337 3.102 1.05095 2.34383 1.12114C2.26878 1.12809 2.19657 1.13508 2.12738 1.14203Z" fill="#008F32"/>
<path d="M35.048 65.7154C34.048 71.2107 24.548 70.7111 20.548 70.2116L23.548 68.7128V18.2556C28.5282 17.4633 35.048 19.7543 35.048 24.2505V65.7154Z" fill="#008F32"/>
<path fill-rule="evenodd" clip-rule="evenodd" d="M31.3745 18.8156C33.71 19.8895 35.5481 21.7211 35.5481 24.2505V65.7605L35.54 65.8049C34.9777 68.8949 32.0339 70.2004 29.0052 70.7048C25.9338 71.2162 22.5022 70.9595 20.4861 70.7077L18.8461 70.5029L23.0481 68.4037V17.8289L23.4695 17.7618C26.0537 17.3507 29.0291 17.7371 31.3745 18.8156ZM24.0481 18.6904C26.343 18.4125 28.9227 18.7889 30.9567 19.7242C33.1262 20.7217 34.5481 22.2837 34.5481 24.2505V65.669C34.0907 68.0454 31.7944 69.2265 28.8409 69.7183C26.6416 70.0846 24.2224 70.0388 22.3137 69.8884L24.0481 69.022V18.6904Z" fill="#008F32"/>
<path d="M44.3777 19.8627L41.9491 17.8764H49.7206C53.1206 17.8764 55.5491 21.849 55.5491 24.3318C55.5491 26.8147 56.0348 67.0367 56.0348 67.0367L58.9491 69C48.8751 68.7456 46.3709 69.2257 44.8634 64.0573L44.3777 19.8627Z" fill="#008F32"/>
<path fill-rule="evenodd" clip-rule="evenodd" d="M40.548 17.3764H49.7206C51.6258 17.3764 53.2131 18.4876 54.3018 19.8627C55.3872 21.2334 56.0491 22.9535 56.0491 24.3318C56.0491 25.5694 56.1705 36.2406 56.292 46.6095C56.3527 51.7923 56.4134 56.8976 56.4589 60.7072L56.5317 66.7685L60.6502 69.5431L58.9365 69.4998C58.0027 69.4762 57.1304 69.4589 56.3166 69.4428C54.9469 69.4156 53.7428 69.3917 52.6889 69.3467C51.0091 69.275 49.6576 69.1484 48.5639 68.8542C47.4559 68.5561 46.5922 68.0808 45.9085 67.3047C45.2345 66.5397 44.7693 65.5204 44.3834 64.1973L44.3642 64.1314L43.8803 20.1018L40.548 17.3764ZM56.0349 67.0367C55.5349 67.0427 55.5349 67.0426 55.5349 67.0423L55.459 60.7192C55.4135 56.9095 55.3527 51.8042 55.292 46.6212C55.1706 36.2584 55.0491 25.5771 55.0491 24.3318C55.0491 23.2273 54.4968 21.7197 53.5179 20.4835C52.5424 19.2515 51.2154 18.3764 49.7206 18.3764H43.3502L44.8751 19.6236L45.3626 63.9826C45.7257 65.2081 46.1337 66.0477 46.6588 66.6437C47.1834 67.2392 47.858 67.6288 48.8237 67.8885C49.8038 68.1522 51.0614 68.2763 52.7316 68.3476C53.7753 68.3922 54.9592 68.4156 56.3184 68.4426C56.6217 68.4486 56.9337 68.4548 57.2548 68.4614L55.5381 67.3049L55.5349 67.0423L56.0349 67.0367Z" fill="#008F32"/>
<path d="M55.5491 6.95194C55.5491 10.7914 52.5047 13.9039 48.7491 13.9039C44.9936 13.9039 41.9491 10.7914 41.9491 6.95194C41.9491 3.11248 44.9936 -1.52588e-05 48.7491 -1.52588e-05C52.5047 -1.52588e-05 55.5491 3.11248 55.5491 6.95194Z" fill="#008F32"/>
<path d="M100.15 7.57286C99.621 0.456313 92.759 0.81244 85.3677 0.812442L88.5067 2.82849V7.57286V22.399H100.15V7.57286Z" fill="#008F32"/>
<path fill-rule="evenodd" clip-rule="evenodd" d="M87.0675 1.30994L89.0067 2.55538V21.899H99.6503V7.59164C99.5219 5.90495 99.0243 4.70723 98.2778 3.84056C97.5257 2.96736 96.4826 2.38576 95.1904 2.0034C92.9746 1.34778 90.1487 1.307 87.0675 1.30994ZM99.0355 3.18794C99.9527 4.2529 100.51 5.67384 100.649 7.53578L100.65 7.55429V22.899H88.0067V3.10161L83.6639 0.312446L85.3677 0.312445C85.7084 0.312445 86.0492 0.311624 86.3893 0.310804C89.6977 0.302834 92.9411 0.295019 95.4741 1.04449C96.8874 1.46267 98.1211 2.12639 99.0355 3.18794Z" fill="#008F32"/>
<path d="M100.15 63.0905C99.6393 70.1461 90.7879 69.4834 85.8604 69.4834C85.8604 69.4834 89.3097 66.8794 89.3097 64.5073V48.5L100.15 47.8937L100.15 63.0905Z" fill="#008F32"/>
<path fill-rule="evenodd" clip-rule="evenodd" d="M87.196 68.9923C87.4337 68.7679 87.694 68.508 87.9548 68.2214C88.4012 67.7309 88.8588 67.1518 89.207 66.5297C89.5533 65.9112 89.8097 65.2176 89.8097 64.5073V48.9728L99.6503 48.4224L99.6503 63.0722C99.5278 64.7116 98.9292 65.8684 98.0504 66.7035C97.1571 67.5525 95.9399 68.1012 94.5414 68.4475C92.2005 69.0271 89.485 69.0134 87.196 68.9923ZM85.559 69.0845L84.3683 69.9834H85.8604C86.2241 69.9834 86.6128 69.9872 87.0209 69.9913C89.33 70.014 92.2587 70.0429 94.7817 69.4182C96.2758 69.0482 97.6753 68.4396 98.7393 67.4284C99.8146 66.4065 100.513 65.0056 100.649 63.1266L100.65 63.1086L100.65 47.3649L88.8097 48.0272V64.5073C88.8097 64.983 88.6349 65.5044 88.3344 66.0413C88.0359 66.5746 87.6312 67.0913 87.2153 67.5483C86.8007 68.0038 86.3845 68.3898 86.0713 68.6622C85.915 68.798 85.7853 68.9049 85.6953 68.9772C85.6504 69.0134 85.6154 69.0408 85.5922 69.0589L85.5662 69.0789L85.5603 69.0835L85.559 69.0845Z" fill="#008F32"/>
<path d="M79.4546 0.603685C79.4546 0.603685 70.0923 -0.680405 66.1503 5.78859V62.8057C67.8749 69.6346 71.457 69.4979 80.9329 69.4834C79.4546 68.4882 77.143 67.4096 76.6503 64.5L76.0053 2.59415L79.4546 0.603685Z" fill="#008F32"/>
<path fill-rule="evenodd" clip-rule="evenodd" d="M66.6503 5.9309V62.7431C67.0698 64.3837 67.5905 65.5653 68.2518 66.4278C68.9135 67.2906 69.7357 67.8598 70.8026 68.2398C71.8827 68.6245 73.2162 68.8162 74.895 68.9072C76.1585 68.9756 77.5952 68.9863 79.2422 68.9858C77.9558 68.1076 76.5405 66.8462 76.1573 64.5835L76.1507 64.5446L75.5023 2.30714L77.7649 1.00147C76.8638 0.990285 75.6669 1.03907 74.3655 1.26302C71.6362 1.73273 68.523 2.95755 66.6503 5.9309ZM79.4546 0.603686L79.5226 0.108323L80.9695 0.306778L76.5084 2.88115L77.1498 64.4545C77.55 66.7251 79.1414 67.7404 80.5702 68.6518C80.7896 68.7918 81.0052 68.9294 81.2121 69.0686L82.5672 69.9809L80.9336 69.9834C80.7549 69.9837 80.5781 69.984 80.4032 69.9843C78.2678 69.9882 76.424 69.9915 74.8409 69.9057C73.1291 69.8129 71.6825 69.6147 70.4671 69.1818C69.2383 68.7442 68.2494 68.068 67.4583 67.0363C66.6749 66.0147 66.1056 64.6708 65.6655 62.9281L65.6503 62.8678V5.64825L65.7233 5.52841C67.8013 2.11839 71.2944 0.77685 74.1959 0.277509C75.6518 0.0269537 76.9784 -0.0155424 77.9404 0.00423029C78.4221 0.0141294 78.814 0.0396735 79.0871 0.0629512C79.2237 0.0745937 79.3307 0.0856798 79.4044 0.0939809C79.4413 0.0981318 79.4699 0.101588 79.4897 0.10407L79.5129 0.10703L79.5194 0.107898L79.5214 0.108168L79.5226 0.108323C79.5228 0.108357 79.5226 0.108323 79.4546 0.603686Z" fill="#008F32"/>
<path d="M389.827 29.8274V9.21942H393.315V18.1794H403.235V9.21942H406.723V29.8274H403.235V20.8674H393.315V29.8274H389.827Z" fill="white"/>
<path d="M366.813 29.8274L374.685 9.21942H378.589L386.397 29.8274H382.813L380.765 24.5154H372.477L370.429 29.8274H366.813ZM373.021 21.8274H380.189L376.605 12.3874L373.021 21.8274Z" fill="white"/>
<path d="M348.39 29.8274V9.21942H356.742C359.792 9.21942 362.054 10.0301 363.526 11.6514C364.998 13.2514 365.734 15.9181 365.734 19.6514C365.734 23.1714 365.008 25.7528 363.558 27.3954C362.107 29.0168 359.835 29.8274 356.742 29.8274H348.39ZM351.878 27.1394H356.198C357.542 27.1394 358.662 26.9474 359.558 26.5634C360.454 26.1581 361.126 25.4114 361.574 24.3234C362.022 23.2354 362.246 21.6781 362.246 19.6514C362.246 17.6248 362.043 16.0568 361.638 14.9474C361.232 13.8381 360.582 13.0594 359.686 12.6114C358.811 12.1634 357.648 11.9394 356.198 11.9394H351.878V27.1394Z" fill="white"/>
<path d="M327.046 29.8274V9.21942H330.118L340.87 24.3874V9.21942H344.326V29.8274H341.254L330.534 14.6914V29.8274H327.046Z" fill="white"/>
<path d="M319.515 29.8274V9.21942H323.003V29.8274H319.515Z" fill="white"/>
<path d="M295.327 29.8274V9.21942H298.815V27.1394H309.375V29.8274H295.327Z" fill="white"/>
<path d="M272.313 29.8274L280.185 9.21942H284.089L291.897 29.8274H288.313L286.265 24.5154H277.977L275.929 29.8274H272.313ZM278.521 21.8274H285.689L282.105 12.3874L278.521 21.8274Z" fill="white"/>
<path d="M262.021 30.1474C258.629 30.1474 256.069 29.2301 254.341 27.3954C252.634 25.5607 251.781 23.0754 251.781 19.9394C251.781 17.6781 252.154 15.7261 252.901 14.0834C253.648 12.4194 254.778 11.1394 256.293 10.2434C257.829 9.34741 259.77 8.89941 262.117 8.89941C263.333 8.89941 264.432 8.98475 265.413 9.15541C266.416 9.30475 267.354 9.52875 268.229 9.82742V12.8354C266.48 12.1954 264.538 11.8754 262.405 11.8754C259.781 11.8754 257.936 12.5687 256.869 13.9554C255.824 15.3421 255.301 17.3367 255.301 19.9394C255.301 22.3074 255.856 24.1101 256.965 25.3474C258.074 26.5847 259.792 27.2034 262.117 27.2034C263.952 27.2034 265.434 26.9901 266.565 26.5634V20.8034H261.413V18.5314H269.541V28.4514C268.88 28.8781 267.93 29.2727 266.693 29.6354C265.477 29.9767 263.92 30.1474 262.021 30.1474Z" fill="white"/>
<path d="M241.521 30.1474C238.129 30.1474 235.569 29.2301 233.841 27.3954C232.134 25.5607 231.281 23.0754 231.281 19.9394C231.281 17.6781 231.654 15.7261 232.401 14.0834C233.148 12.4194 234.278 11.1394 235.793 10.2434C237.329 9.34741 239.27 8.89941 241.617 8.89941C242.833 8.89941 243.932 8.98475 244.913 9.15541C245.916 9.30475 246.854 9.52875 247.729 9.82742V12.8354C245.98 12.1954 244.038 11.8754 241.905 11.8754C239.281 11.8754 237.436 12.5687 236.369 13.9554C235.324 15.3421 234.801 17.3367 234.801 19.9394C234.801 22.3074 235.356 24.1101 236.465 25.3474C237.574 26.5847 239.292 27.2034 241.617 27.2034C243.452 27.2034 244.934 26.9901 246.065 26.5634V20.8034H240.913V18.5314H249.041V28.4514C248.38 28.8781 247.43 29.2727 246.193 29.6354C244.977 29.9767 243.42 30.1474 241.521 30.1474Z" fill="white"/>
<path d="M210.577 29.8274V9.21942H213.649L224.401 24.3874V9.21942H227.857V29.8274H224.785L214.065 14.6914V29.8274H210.577Z" fill="white"/>
<path d="M197.815 30.1474C194.977 30.1474 192.769 29.4648 191.191 28.0994C189.633 26.7341 188.855 24.7608 188.855 22.1794V9.21942H192.343V22.0514C192.343 23.7794 192.812 25.0701 193.751 25.9234C194.711 26.7768 196.065 27.2034 197.815 27.2034C199.543 27.2034 200.876 26.7768 201.815 25.9234C202.775 25.0701 203.255 23.7794 203.255 22.0514V9.21942H206.711V22.1794C206.711 24.7608 205.932 26.7341 204.375 28.0994C202.817 29.4648 200.631 30.1474 197.815 30.1474Z" fill="white"/>
<path d="M176.171 29.8274V11.9394H169.579V9.21942H186.219V11.9394H179.659V29.8274H176.171Z" fill="white"/>
<path d="M150.532 29.8274L158.404 9.21942H162.308L170.116 29.8274H166.532L164.484 24.5154H156.196L154.148 29.8274H150.532ZM156.74 21.8274H163.908L160.324 12.3874L156.74 21.8274Z" fill="white"/>
<path d="M132.077 29.8274V9.21942H142.061C144.109 9.21942 145.624 9.69942 146.605 10.6594C147.587 11.6194 148.077 12.9741 148.077 14.7234C148.077 15.8328 147.853 16.7714 147.405 17.5394C146.957 18.2861 146.36 18.8514 145.613 19.2354C146.616 19.5128 147.405 20.0141 147.981 20.7394C148.579 21.4434 148.877 22.4888 148.877 23.8754C148.877 25.8808 148.333 27.3741 147.245 28.3554C146.179 29.3368 144.6 29.8274 142.509 29.8274H132.077ZM135.565 18.0194H141.581C142.755 18.0194 143.587 17.7528 144.077 17.2194C144.589 16.6648 144.845 15.9288 144.845 15.0114C144.845 13.9448 144.589 13.1554 144.077 12.6434C143.565 12.1101 142.605 11.8434 141.197 11.8434H135.565V18.0194ZM135.565 27.2674H141.773C143.011 27.2674 143.917 27.0114 144.493 26.4994C145.069 25.9661 145.357 25.0488 145.357 23.7474C145.357 22.6808 145.069 21.8914 144.493 21.3794C143.939 20.8461 142.915 20.5794 141.421 20.5794H135.565V27.2674Z" fill="white"/>
<path fill-rule="evenodd" clip-rule="evenodd" d="M408.15 40.1474H130.65V38.1474H408.15V40.1474Z" fill="white"/>
<path d="M296.892 48.4599C299.767 48.4599 301.892 48.8662 303.267 49.6787C304.642 50.4807 305.33 51.6943 305.33 53.3193C305.33 55.8089 303.84 57.6057 300.861 58.7099C304.517 59.262 306.346 60.9287 306.346 63.7099C306.346 65.5432 305.606 67.0172 304.127 68.1318C302.648 69.236 300.054 69.788 296.346 69.788L289.439 69.8037C289.304 69.4495 289.236 69.1162 289.236 68.8037C289.236 68.5953 289.288 68.4443 289.392 68.3505C289.507 68.2464 289.689 68.1943 289.939 68.1943H291.096C291.168 66.736 291.205 63.5901 291.205 58.7568C291.205 54.413 291.168 51.5172 291.096 50.0693H289.439C289.304 49.7151 289.236 49.387 289.236 49.0849C289.236 48.8662 289.288 48.7099 289.392 48.6162C289.507 48.512 289.689 48.4599 289.939 48.4599H296.892ZM294.674 63.6318C294.674 65.4651 294.804 66.5693 295.064 66.9443C295.335 67.3193 296.304 67.5068 297.971 67.5068C299.596 67.5068 300.757 67.2255 301.455 66.663C302.163 66.0901 302.517 65.1891 302.517 63.9599C302.517 62.6057 302.07 61.5693 301.174 60.8505C300.278 60.1214 298.913 59.7568 297.08 59.7568C296.205 59.7568 295.403 59.8089 294.674 59.913V63.6318ZM294.674 57.663C295.278 57.7464 295.95 57.788 296.689 57.788C298.398 57.788 299.627 57.486 300.377 56.8818C301.127 56.2776 301.502 55.4026 301.502 54.2568C301.502 53.0485 301.127 52.163 300.377 51.6005C299.637 51.0276 298.476 50.7412 296.892 50.7412C296.142 50.7412 295.429 50.7932 294.752 50.8974C294.71 52.2307 294.684 54.486 294.674 57.663Z" fill="white"/>
<path d="M280.064 50.0693C279.929 49.7151 279.861 49.387 279.861 49.0849C279.861 48.8662 279.913 48.7099 280.017 48.6162C280.132 48.512 280.314 48.4599 280.564 48.4599H286.596C286.721 48.7724 286.783 49.0745 286.783 49.3662C286.783 49.6266 286.731 49.8089 286.627 49.913C286.523 50.0172 286.34 50.0693 286.08 50.0693H284.971C284.918 51.5172 284.898 55.0172 284.908 60.5693C284.908 64.3089 284.184 66.8349 282.736 68.1474C281.288 69.4495 279.111 70.1005 276.205 70.1005C273.715 70.1005 271.965 69.6266 270.955 68.6787C269.945 67.7307 269.439 65.861 269.439 63.0693C269.439 55.8505 269.398 51.5172 269.314 50.0693H267.939C267.814 49.7151 267.752 49.387 267.752 49.0849C267.752 48.8662 267.804 48.7099 267.908 48.6162C268.023 48.512 268.205 48.4599 268.455 48.4599H274.549C274.684 48.7724 274.752 49.0745 274.752 49.3662C274.752 49.6266 274.7 49.8089 274.596 49.913C274.491 50.0172 274.304 50.0693 274.033 50.0693H273.017C272.934 51.7776 272.892 55.2932 272.892 60.6162C272.892 63.6162 273.267 65.5693 274.017 66.4755C274.778 67.3714 275.892 67.8193 277.361 67.8193C279.08 67.8193 280.267 67.3662 280.924 66.4599C281.58 65.5537 281.908 63.8453 281.908 61.3349C281.908 55.5328 281.882 51.7776 281.83 50.0693H280.064Z" fill="white"/>
<path d="M258.017 67.7724C261.184 67.7724 263.715 67.4078 265.611 66.6787C265.945 67.2516 266.111 67.8453 266.111 68.4599C266.111 68.9182 265.96 69.2568 265.658 69.4755C265.356 69.6839 264.741 69.788 263.814 69.788L251.346 69.8037C251.21 69.4495 251.142 69.1162 251.142 68.8037C251.142 68.5953 251.195 68.4443 251.299 68.3505C251.413 68.2464 251.596 68.1943 251.846 68.1943H253.002C253.075 66.736 253.111 63.0172 253.111 57.038C253.111 53.8401 253.07 51.5172 252.986 50.0693H251.346C251.21 49.7151 251.142 49.387 251.142 49.0849C251.142 48.8662 251.195 48.7099 251.299 48.6162C251.413 48.512 251.596 48.4599 251.846 48.4599H258.611C258.747 48.7724 258.814 49.0745 258.814 49.3662C258.814 49.6266 258.762 49.8089 258.658 49.913C258.554 50.0172 258.366 50.0693 258.096 50.0693H256.689C256.616 51.5172 256.58 53.9026 256.58 57.2255C256.58 63.0797 256.616 66.5953 256.689 67.7724H258.017Z" fill="white"/>
<path d="M242.283 67.8193C244.137 67.8193 245.804 67.3401 247.283 66.3818C247.835 66.9547 248.111 67.5537 248.111 68.1787C248.111 68.762 247.439 69.2307 246.096 69.5849C244.752 69.9287 243.137 70.1005 241.252 70.1005C238.241 70.1005 236.023 69.3922 234.596 67.9755C233.168 66.5589 232.455 63.986 232.455 60.2568C232.455 56.1005 233.293 53.0432 234.971 51.0849C236.648 49.1266 239.116 48.1474 242.377 48.1474C244.189 48.1474 245.559 48.2932 246.486 48.5849C247.413 48.8766 247.877 49.3714 247.877 50.0693C247.877 50.6422 247.59 51.2099 247.017 51.7724C245.142 50.8766 243.346 50.4287 241.627 50.4287C239.856 50.4287 238.523 51.0693 237.627 52.3505C236.731 53.6214 236.283 55.7776 236.283 58.8193C236.283 62.1839 236.752 64.5276 237.689 65.8505C238.637 67.163 240.168 67.8193 242.283 67.8193Z" fill="white"/>
</svg>
